HIERARCHY
ROOT Pelvis
{
	OFFSET 0.000000 0.000000 0.000000
	CHANNELS 6 Xposition Yposition Zposition Xrotation Yrotation Zrotation
	JOINT LeftUpLeg_virtual
	{
		OFFSET 0.000000 0.000000 0.000000
		CHANNELS 3 Xrotation Yrotation Zrotation
		JOINT LeftUpLeg
		{
			OFFSET 18.735201 -5.666702 -4.541200
			CHANNELS 3 Xrotation Yrotation Zrotation
			JOINT LeftLeg
			{
				OFFSET -0.021200 -31.938179 0.493100
				CHANNELS 3 Xrotation Yrotation Zrotation
				JOINT LeftFoot
				{
					OFFSET 0.021200 -31.938179 -4.336299
					CHANNELS 3 Xrotation Yrotation Zrotation
					JOINT LeftToeBase
					{
						OFFSET 0.943001 -26.722000 15.023500
						CHANNELS 3 Xrotation Yrotation Zrotation
						End Site
						{
							OFFSET 0 0 0
						}
					}
				}
			}
		}
	}
	JOINT RightUpLeg_virtual
	{
		OFFSET 0.000000 0.000000 0.000000
		CHANNELS 3 Xrotation Yrotation Zrotation
		JOINT RightUpLeg
		{
			OFFSET -18.735201 -5.666702 -4.541200
			CHANNELS 3 Xrotation Yrotation Zrotation
			JOINT RightLeg
			{
				OFFSET 0.018946 -31.938133 0.493100
				CHANNELS 3 Xrotation Yrotation Zrotation
				JOINT RightFoot
				{
					OFFSET -0.018946 -31.938126 -4.336299
					CHANNELS 3 Xrotation Yrotation Zrotation
					JOINT RightToeBase
					{
						OFFSET -0.943001 -26.722004 15.023500
						CHANNELS 3 Xrotation Yrotation Zrotation
						End Site
						{
							OFFSET 0 0 0
						}
					}
				}
			}
		}
	}
	JOINT Hips_virtual
	{
		OFFSET 0.000000 0.000000 0.000000
		CHANNELS 3 Xrotation Yrotation Zrotation
		JOINT Hips
		{
			OFFSET -0.000000 -0.000000 -0.000000
			CHANNELS 3 Xrotation Yrotation Zrotation
			JOINT Spine
			{
				OFFSET 0.000000 10.199997 -0.299500
				CHANNELS 3 Xrotation Yrotation Zrotation
				JOINT Spine1
				{
					OFFSET 0.000000 11.900002 -1.516600
					CHANNELS 3 Xrotation Yrotation Zrotation
					JOINT Spine2
					{
						OFFSET 0.000000 13.600006 -2.842500
						CHANNELS 3 Xrotation Yrotation Zrotation
						JOINT Neck_virtual
						{
							OFFSET 0.000000 0.000000 0.000000
							CHANNELS 3 Xrotation Yrotation Zrotation
							JOINT Neck
							{
								OFFSET 0.000000 9.624100 -2.890100
								CHANNELS 3 Xrotation Yrotation Zrotation
								JOINT Head
								{
									OFFSET 0.000000 14.068802 -1.351900
									CHANNELS 3 Xrotation Yrotation Zrotation
									End Site
									{
										OFFSET 0 0 0
									}
								}
							}
						}
						JOINT LeftShoulder_virtual
						{
							OFFSET 0.000000 0.000000 0.000000
							CHANNELS 3 Xrotation Yrotation Zrotation
							JOINT LeftShoulder
							{
								OFFSET 15.263000 10.923401 -0.547700
								CHANNELS 3 Xrotation Yrotation Zrotation
								JOINT LeftArm
								{
									OFFSET 25.438599 -2.830597 -13.032500
									CHANNELS 3 Xrotation Yrotation Zrotation
									JOINT LeftForeArm
									{
										OFFSET 29.960503 0.000000 0.000000
										CHANNELS 3 Xrotation Yrotation Zrotation
										JOINT LeftHand
										{
											OFFSET 27.849251 0.000000 0.000000
											CHANNELS 3 Xrotation Yrotation Zrotation
											End Site
											{
												OFFSET 0 0 0
											}
										}
									}
								}
							}
						}
						JOINT RightShoulder_virtual
						{
							OFFSET 0.000000 0.000000 0.000000
							CHANNELS 3 Xrotation Yrotation Zrotation
							JOINT RightShoulder
							{
								OFFSET -15.263000 10.923401 -0.547700
								CHANNELS 3 Xrotation Yrotation Zrotation
								JOINT RightArm
								{
									OFFSET -25.438599 -2.830597 -13.032500
									CHANNELS 3 Xrotation Yrotation Zrotation
									JOINT RightForeArm
									{
										OFFSET -29.960503 0.000000 0.000000
										CHANNELS 3 Xrotation Yrotation Zrotation
										JOINT RightHand
										{
											OFFSET -27.849251 0.000000 0.000000
											CHANNELS 3 Xrotation Yrotation Zrotation
											End Site
											{
												OFFSET 0 0 0
											}
										}
									}
								}
							}
						}
					}
				}
			}
		}
	}
}
MOTION
Frames: 5
Frame Time: 0.03333333
-3.905264 91.467026 21.968969 0.000000 0.000000 0.000000 2.473056 18.584902 -3.116832 -34.466337 -6.844520 6.943568 26.923521 -7.051302 -13.660798 9.977748 -12.672147 0.527147 0.000000 0.000000 0.000000 1.806399 19.313215 -2.725597 -32.408285 1.517733 1.732828 36.396722 18.252989 -3.292742 0.596477 7.761258 -1.348236 0.000000 0.000000 0.000000 2.195805 18.770569 -3.130658 -0.779209 -0.077707 -0.040643 5.421740 5.161294 -0.440922 3.920995 -3.763012 2.829687 0.000000 0.000000 0.000000 1.779408 -0.174873 2.082427 0.509025 6.652730 -1.365743 0.000000 0.000000 0.000000 4.487415 -1.446920 2.387593 -6.087071 -8.931281 -9.994384 -41.138875 16.904341 -30.995170 0.653259 -78.833798 7.337188 0.000000 0.000000 0.000000 0.038161 0.550754 2.141947 10.136104 10.375327 4.313665 17.292801 19.133049 65.693381 22.861027 34.790846 -13.072583 0.000000 0.000000 0.000000 
-4.753727 91.447945 22.370739 0.000000 0.000000 0.000000 3.048525 24.226886 -4.048835 -34.676765 -7.932706 8.367098 25.866589 -7.368914 -13.456883 10.378681 -12.898213 -0.026465 0.000000 0.000000 0.000000 2.289425 24.947898 -3.408170 -31.106119 -0.391179 2.240850 36.467271 16.503938 -3.549966 -0.687980 5.456623 -2.249044 0.000000 0.000000 0.000000 2.822924 24.381921 -3.936195 -0.763595 -0.103792 -0.028654 4.955762 4.413703 -0.539373 4.105400 -3.983575 2.723130 0.000000 0.000000 0.000000 1.981821 -0.248915 2.008905 0.289913 6.160332 -1.304319 0.000000 0.000000 0.000000 4.633659 -1.555556 2.364812 -6.113196 -10.812089 -8.663270 -43.608074 14.753419 -32.013093 2.525334 -75.077631 8.684492 0.000000 0.000000 0.000000 0.135475 0.497460 2.033487 9.961467 10.622478 4.251402 15.518905 15.229911 66.926872 22.988528 34.753703 -13.182689 0.000000 0.000000 0.000000 
-5.627829 91.536034 22.575800 0.000000 0.000000 0.000000 3.483018 29.172390 -4.982623 -34.482883 -8.336226 10.546074 25.267397 -6.935839 -12.955551 9.682233 -12.258939 0.267710 0.000000 0.000000 0.000000 2.715162 29.850468 -4.104250 -29.324854 -2.702011 2.463060 36.034237 14.150453 -3.329348 -2.792118 2.652688 -2.945994 0.000000 0.000000 0.000000 3.323300 29.399450 -4.711969 -0.753683 -0.115225 0.000396 4.766626 3.824366 -0.913537 4.239689 -4.221381 2.712586 0.000000 0.000000 0.000000 2.166277 -0.312683 2.013814 0.043157 5.703915 -1.223029 0.000000 0.000000 0.000000 4.797110 -1.648446 2.388928 -6.076955 -12.319165 -7.340632 -45.933944 12.451202 -33.112515 3.658750 -71.286684 9.461526 0.000000 0.000000 0.000000 0.257285 0.444691 1.994474 9.814564 10.868528 4.122511 13.543727 10.715731 68.005871 23.186488 34.835898 -13.417785 0.000000 0.000000 0.000000 
-6.497517 91.693268 22.650812 0.000000 0.000000 0.000000 3.667785 33.299047 -5.775195 -33.856756 -8.067557 13.272961 25.262915 -5.848499 -12.192396 8.098055 -10.942277 1.413088 0.000000 0.000000 0.000000 2.988403 33.976694 -4.743036 -27.507216 -4.930233 2.642746 35.474753 11.745686 -2.785170 -3.868494 -0.000116 -2.977440 0.000000 0.000000 0.000000 3.569469 33.831303 -5.364339 -0.744685 -0.107781 0.021634 4.858820 3.327141 -1.369808 4.357036 -4.507887 2.805878 0.000000 0.000000 0.000000 2.348964 -0.394443 2.105283 -0.203374 5.293287 -1.106157 0.000000 0.000000 0.000000 4.977307 -1.757406 2.423352 -6.000629 -13.418248 -6.180311 -47.924265 10.132365 -34.196449 4.477674 -67.869192 10.069739 0.000000 0.000000 0.000000 0.365945 0.357755 2.036475 9.710932 10.930965 3.871659 11.244594 6.033057 69.076886 23.351129 34.802416 -13.717474 0.000000 0.000000 0.000000 
-7.358654 91.889252 22.557610 0.000000 0.000000 0.000000 3.650543 36.793621 -6.352677 -32.787790 -7.333484 16.228806 25.922132 -4.457444 -11.279954 6.057755 -9.453632 2.984308 0.000000 0.000000 0.000000 3.100446 37.592736 -5.283364 -26.059731 -6.511096 2.768080 34.951605 9.695582 -2.213746 -3.106742 -2.193277 -2.563618 0.000000 0.000000 0.000000 3.580196 37.650397 -5.840966 -0.743451 -0.087213 0.020158 5.203992 2.872521 -1.776699 4.470601 -4.840193 2.984574 0.000000 0.000000 0.000000 2.545302 -0.496783 2.266447 -0.422970 4.936701 -0.945590 0.000000 0.000000 0.000000 5.185150 -1.897614 2.447248 -5.897760 -14.131783 -5.288196 -49.478351 7.796519 -35.246290 5.115387 -65.059041 10.606496 0.000000 0.000000 0.000000 0.457313 0.234285 2.157614 9.653005 10.741797 3.503533 8.635630 1.578303 70.197460 23.409102 34.497588 -14.023561 0.000000 0.000000 0.000000 
